<?xml version="1.0" encoding="UTF-8"?>
<svg id="Layer_1" data-name="Layer 1" xmlns="http://www.w3.org/2000/svg" viewBox="0 0 230.2 238.27">
  <defs>
    <style>
      .cls-1 {
        fill: #010101;
        stroke-width: 0px;
      }
    </style>
  </defs>
  <path class="cls-1" d="M90.89,238.27c-3.41,0-6.18-2.77-6.18-6.18v-40.34c0-1.04-.85-1.89-1.89-1.89h-25.64c-4.8,0-9.49-1.95-12.87-5.35l-22.83-22.82c-3.42-3.4-5.37-8.11-5.35-12.92V54.59c0-1.04-.85-1.89-1.89-1.89h-4.03c-5.63,0-10.21-4.58-10.21-10.21s4.58-10.21,10.21-10.21h8.07c1.04,0,1.89-.85,1.89-1.89V6.18c0-3.41,2.77-6.18,6.18-6.18h177.5c3.41,0,6.18,2.77,6.18,6.18v24.21c0,1.04.85,1.89,1.89,1.89h8.07c5.63,0,10.21,4.58,10.21,10.21s-4.58,10.21-10.21,10.21h-4.03c-1.04,0-1.89.85-1.89,1.89v94.17c.01,4.82-1.94,9.53-5.35,12.92l-22.82,22.82c-3.39,3.4-8.08,5.36-12.88,5.36h-25.64c-1.04,0-1.89.85-1.89,1.89v40.34c0,3.41-2.77,6.18-6.18,6.18h-48.41ZM90.89,189.86c-1.04,0-1.89.85-1.89,1.89v40.34c0,1.04.85,1.89,1.89,1.89h48.41c1.04,0,1.89-.85,1.89-1.89v-8.07c0-1.04-.85-1.89-1.89-1.89h-36.31c-1.18,0-2.14-.96-2.14-2.14s.96-2.14,2.14-2.14h36.31c1.04,0,1.89-.85,1.89-1.89v-8.07c0-1.04-.85-1.89-1.89-1.89h-36.31c-1.18,0-2.14-.96-2.14-2.14s.96-2.14,2.14-2.14h36.31c1.04,0,1.89-.85,1.89-1.89v-8.07c0-1.04-.85-1.89-1.89-1.89h-48.41ZM22.31,52.7c-1.04,0-1.89.85-1.89,1.89v94.17c-.01,3.69,1.48,7.3,4.1,9.9l22.82,22.82c2.65,2.63,6.16,4.09,9.89,4.1h115.73c3.71,0,7.31-1.5,9.9-4.1l22.81-22.82c2.61-2.6,4.11-6.21,4.1-9.9V54.59c0-1.04-.85-1.89-1.89-1.89H22.31ZM10.21,36.56c-3.27,0-5.92,2.66-5.92,5.93s2.66,5.92,5.92,5.92h209.78c1.58,0,3.07-.62,4.19-1.74,1.12-1.12,1.74-2.61,1.73-4.19,0-3.27-2.66-5.92-5.93-5.92H10.21ZM26.35,4.29c-1.04,0-1.89.85-1.89,1.89v24.21c0,1.04.85,1.89,1.89,1.89h177.5c1.04,0,1.89-.85,1.89-1.89V6.18c0-1.04-.85-1.89-1.89-1.89H26.35Z"/>
  <path class="cls-1" d="M90.89,173.72c-1.18,0-2.14-.96-2.14-2.14s.96-2.14,2.14-2.14h48.41c1.18,0,2.14.96,2.14,2.14s-.96,2.14-2.14,2.14h-48.41Z"/>
  <path class="cls-1" d="M74.76,157.58c-1.18,0-2.14-.96-2.14-2.14s.96-2.14,2.14-2.14h80.68c1.18,0,2.14.96,2.14,2.14s-.96,2.14-2.14,2.14h-80.68Z"/>
  <path class="cls-1" d="M34.42,68.83c-1.18,0-2.14-.96-2.14-2.14s.96-2.14,2.14-2.14h161.37c1.18,0,2.14.96,2.14,2.14s-.96,2.14-2.14,2.14H34.42Z"/>
</svg>