<?xml version="1.0" encoding="UTF-8"?>
<svg id="Layer_1" data-name="Layer 1" xmlns="http://www.w3.org/2000/svg" viewBox="0 0 285.1447743575 369">
  <defs>
    <style>
      .cls-1 {
        fill: none;
        stroke: #000;
        stroke-linecap: round;
        stroke-linejoin: round;
        stroke-width: 22px;
      }
    </style>
  </defs>
  <line class="cls-1" x1="12.8676000224" y1="107.1813800016" x2="91.4935407043" y2="107.1813800016"/>
  <line class="cls-1" x1="91.4935407043" y1="107.1813800016" x2="91.4935407043" y2="11"/>
  <line class="cls-1" x1="91.4935407043" y1="11" x2="195.1453207954" y2="11"/>
  <line class="cls-1" x1="195.1453207954" y1="107.1813800016" x2="195.1453207954" y2="11"/>
  <line class="cls-1" x1="196.8261632645" y1="107.1813800016" x2="268.3552256425" y2="107.1813800016"/>
  <line class="cls-1" x1="194.9585565631" y1="152.3772822869" x2="273.5844994714" y2="152.3772822869"/>
  <line class="cls-1" x1="196.8261632645" y1="213.2610327749" x2="274.1447743575" y2="213.2610327749"/>
  <line class="cls-1" x1="195.5188314492" y1="259.76425797" x2="274.1447743575" y2="259.76425797"/>
  <line class="cls-1" x1="11" y1="152.3772822869" x2="89.8127071406" y2="152.3772822869"/>
  <line class="cls-1" x1="12.8676000224" y1="213.2610327749" x2="89.8127071406" y2="213.2610327749"/>
  <line class="cls-1" x1="11.7470413448" y1="259.76425797" x2="90.3729820267" y2="259.76425797"/>
  <line class="cls-1" x1="91.4935407043" y1="358" x2="91.4935407043" y2="261.8186289038"/>
  <line class="cls-1" x1="91.6803049366" y1="358" x2="195.3320850277" y2="358"/>
  <line class="cls-1" x1="195.1453207954" y1="356.1323932986" x2="195.1453207954" y2="259.9510222023"/>
  <line class="cls-1" x1="11" y1="107.1813800016" x2="11" y2="152.3772822869"/>
  <line class="cls-1" x1="273.5844994714" y1="107.1813800016" x2="273.5844994714" y2="152.3772822869"/>
  <line class="cls-1" x1="89.8127071406" y1="152.3772822869" x2="89.8127071406" y2="213.2610327749"/>
  <line class="cls-1" x1="194.9585565631" y1="152.3772822869" x2="194.9585565631" y2="213.2610327749"/>
  <line class="cls-1" x1="274.1447743575" y1="213.2610327749" x2="274.1447743575" y2="259.76425797"/>
  <line class="cls-1" x1="11.7470413448" y1="213.2610327749" x2="11.7470413448" y2="259.76425797"/>
</svg>