<?xml version="1.0" encoding="UTF-8"?><svg id="Layer_1" xmlns="http://www.w3.org/2000/svg" viewBox="0 0 21.68 21.12"><defs><style>.cls-1{fill:none;stroke:#000;stroke-linecap:round;stroke-linejoin:round;stroke-width:2px;}</style></defs><line class="cls-1" x1="1.16" y1="6.15" x2="5.37" y2="6.15"/><line class="cls-1" x1="5.37" y1="6.15" x2="5.37" y2="1"/><line class="cls-1" x1="5.37" y1="1" x2="10.92" y2="1"/><line class="cls-1" x1="10.92" y1="6.15" x2="10.92" y2="1"/><line class="cls-1" x1="11.01" y1="6.15" x2="14.84" y2="6.15"/><line class="cls-1" x1="10.91" y1="8.57" x2="15.12" y2="8.57"/><line class="cls-1" x1="11.01" y1="11.83" x2="15.15" y2="11.83"/><line class="cls-1" x1="10.94" y1="14.32" x2="15.15" y2="14.32"/><line class="cls-1" x1="1.06" y1="8.57" x2="5.28" y2="8.57"/><line class="cls-1" x1="1.16" y1="11.83" x2="5.28" y2="11.83"/><line class="cls-1" x1="1.1" y1="14.32" x2="5.31" y2="14.32"/><line class="cls-1" x1="5.37" y1="19.58" x2="5.37" y2="14.43"/><line class="cls-1" x1="5.38" y1="19.58" x2="10.93" y2="19.58"/><line class="cls-1" x1="10.92" y1="19.48" x2="10.92" y2="14.33"/><line class="cls-1" x1="1.06" y1="6.15" x2="1.06" y2="8.57"/><line class="cls-1" x1="15.12" y1="6.15" x2="15.12" y2="8.57"/><line class="cls-1" x1="5.28" y1="8.57" x2="5.28" y2="11.83"/><line class="cls-1" x1="10.91" y1="8.57" x2="10.91" y2="11.83"/><line class="cls-1" x1="15.15" y1="11.83" x2="15.15" y2="14.32"/><line class="cls-1" x1="1.1" y1="11.83" x2="1.1" y2="14.32"/></svg>