<?xml version="1.0" encoding="UTF-8"?>
<svg id="Layer_1" data-name="Layer 1" xmlns="http://www.w3.org/2000/svg" version="1.1" viewBox="0 0 16.1 20.6">
  <defs>
    <style>
      .cls-1 {
        fill: none;
        stroke: #fff;
        stroke-linecap: round;
        stroke-linejoin: round;
        stroke-width: 2px;
      }
    </style>
  </defs>
  <line class="cls-1" x1="1.1" y1="6.2" x2="5.3" y2="6.2"/>
  <line class="cls-1" x1="5.3" y1="6.2" x2="5.3" y2="1"/>
  <line class="cls-1" x1="5.3" y1="1" x2="10.9" y2="1"/>
  <line class="cls-1" x1="10.9" y1="6.2" x2="10.9" y2="1"/>
  <line class="cls-1" x1="10.9" y1="6.2" x2="14.8" y2="6.2"/>
  <line class="cls-1" x1="10.8" y1="8.6" x2="15.1" y2="8.6"/>
  <line class="cls-1" x1="10.9" y1="11.8" x2="15.1" y2="11.8"/>
  <line class="cls-1" x1="10.9" y1="14.3" x2="15.1" y2="14.3"/>
  <line class="cls-1" x1="1" y1="8.6" x2="5.2" y2="8.6"/>
  <line class="cls-1" x1="1.1" y1="11.8" x2="5.2" y2="11.8"/>
  <line class="cls-1" x1="1" y1="14.3" x2="5.2" y2="14.3"/>
  <line class="cls-1" x1="5.3" y1="19.6" x2="5.3" y2="14.4"/>
  <line class="cls-1" x1="5.3" y1="19.6" x2="10.9" y2="19.6"/>
  <line class="cls-1" x1="10.9" y1="19.5" x2="10.9" y2="14.3"/>
  <line class="cls-1" x1="1" y1="6.2" x2="1" y2="8.6"/>
  <line class="cls-1" x1="15.1" y1="6.2" x2="15.1" y2="8.6"/>
  <line class="cls-1" x1="5.2" y1="8.6" x2="5.2" y2="11.8"/>
  <line class="cls-1" x1="10.8" y1="8.6" x2="10.8" y2="11.8"/>
  <line class="cls-1" x1="15.1" y1="11.8" x2="15.1" y2="14.3"/>
  <line class="cls-1" x1="1" y1="11.8" x2="1" y2="14.3"/>
</svg>