<?xml version="1.0" encoding="UTF-8"?>
<svg id="Layer_1" data-name="Layer 1" xmlns="http://www.w3.org/2000/svg" viewBox="0 0 16.08999967575 20.57999992371">
  <defs>
    <style>
      .cls-1 {
        fill: none;
        stroke: #fff;
        stroke-linecap: round;
        stroke-linejoin: round;
        stroke-width: 2px;
      }
    </style>
  </defs>
  <line class="cls-1" x1="1.10000002384" y1="6.15000009537" x2="5.30999994278" y2="6.15000009537"/>
  <line class="cls-1" x1="5.30999994278" y1="6.15000009537" x2="5.30999994278" y2="1"/>
  <line class="cls-1" x1="5.30999994278" y1="1" x2="10.86000013351" y2="1"/>
  <line class="cls-1" x1="10.86000013351" y1="6.15000009537" x2="10.86000013351" y2="1"/>
  <line class="cls-1" x1="10.9500002861" y1="6.15000009537" x2="14.78000020981" y2="6.15000009537"/>
  <line class="cls-1" x1="10.84999990463" y1="8.56999969482" x2="15.05999994278" y2="8.56999969482"/>
  <line class="cls-1" x1="10.9500002861" y1="11.82999992371" x2="15.08999967575" y2="11.82999992371"/>
  <line class="cls-1" x1="10.8799996376" y1="14.31999969482" x2="15.08999967575" y2="14.31999969482"/>
  <line class="cls-1" x1="1" y1="8.56999969482" x2="5.22000026703" y2="8.56999969482"/>
  <line class="cls-1" x1="1.10000002384" y1="11.82999992371" x2="5.22000026703" y2="11.82999992371"/>
  <line class="cls-1" x1="1.04000008106" y1="14.31999969482" x2="5.25" y2="14.31999969482"/>
  <line class="cls-1" x1="5.30999994278" y1="19.57999992371" x2="5.30999994278" y2="14.43000030518"/>
  <line class="cls-1" x1="5.32000017166" y1="19.57999992371" x2="10.8700003624" y2="19.57999992371"/>
  <line class="cls-1" x1="10.86000013351" y1="19.47999954224" x2="10.86000013351" y2="14.32999992371"/>
  <line class="cls-1" x1="1" y1="6.15000009537" x2="1" y2="8.56999969482"/>
  <line class="cls-1" x1="15.05999994278" y1="6.15000009537" x2="15.05999994278" y2="8.56999969482"/>
  <line class="cls-1" x1="5.22000026703" y1="8.56999969482" x2="5.22000026703" y2="11.82999992371"/>
  <line class="cls-1" x1="10.84999990463" y1="8.56999969482" x2="10.84999990463" y2="11.82999992371"/>
  <line class="cls-1" x1="15.08999967575" y1="11.82999992371" x2="15.08999967575" y2="14.31999969482"/>
  <line class="cls-1" x1="1.04000008106" y1="11.82999992371" x2="1.04000008106" y2="14.31999969482"/>
</svg>