<?xml version="1.0" encoding="UTF-8"?><svg id="Layer_1" xmlns="http://www.w3.org/2000/svg" viewBox="0 0 23.36 23.36"><defs><style>.cls-1{fill:none;stroke:#333;stroke-linecap:round;stroke-linejoin:round;}</style></defs><path class="cls-1" d="M9.4.73v3.25c-.54.16-1.06.38-1.55.64l-2.3-2.3c-1.28.84-2.38,1.94-3.23,3.23l2.3,2.3c-.27.49-.48,1.01-.64,1.55H.73c-.15.74-.23,1.5-.23,2.28s.08,1.54.23,2.28h3.25c.16.54.38,1.06.64,1.55l-2.3,2.3c.84,1.28,1.94,2.38,3.23,3.23l2.3-2.3c.49.27,1.01.48,1.55.64v3.25c.74.15,1.5.23,2.28.23s1.54-.08,2.28-.23v-3.25c.54-.16,1.06-.38,1.55-.64l2.3,2.3c1.28-.84,2.38-1.94,3.23-3.23l-2.3-2.3c.26-.49.48-1.01.64-1.55h3.25c.15-.74.23-1.5.23-2.28s-.08-1.54-.23-2.28h-3.25c-.16-.54-.38-1.06-.64-1.55l2.3-2.3c-.84-1.28-1.94-2.38-3.23-3.23l-2.3,2.3c-.49-.27-1.01-.48-1.55-.64V.73c-.74-.15-1.5-.23-2.28-.23s-1.54.08-2.28.23Z"/><circle class="cls-1" cx="11.68" cy="11.68" r="1.67"/><path class="cls-1" d="M10.62,16.13c-1.47.7-2.79.79-3.47.1-1.17-1.17-.09-4.16,2.42-6.66.44-.44.89-.83,1.34-1.17"/><path class="cls-1" d="M12.57,7.33c1.55-.78,2.94-.9,3.65-.18,1.17,1.17.09,4.16-2.42,6.66-.4.4-.82.77-1.24,1.1"/><path class="cls-1" d="M7.28,10.7c-.73-1.51-.84-2.85-.13-3.55,1.17-1.17,4.16-.09,6.66,2.42.4.4.76.81,1.09,1.23"/><path class="cls-1" d="M16.1,12.69c.72,1.5.82,2.83.12,3.53-1.17,1.17-4.16.09-6.66-2.42-.41-.41-.79-.84-1.12-1.27"/></svg>