<?xml version="1.0" encoding="UTF-8"?>
<svg id="Layer_1" data-name="Layer 1" xmlns="http://www.w3.org/2000/svg" viewBox="0 0 281.45519288984 214.7396">
  <defs>
    <style>
      .cls-1 {
        fill: #010101;
        stroke-width: 0px;
      }
    </style>
  </defs>
  <path class="cls-1" d="M21.59329945451,214.7396c-11.8913996996-.0141-21.57909945487-9.7023-21.59329945451-21.5959V21.5933C.01419999964,9.7026,9.7020997549.0147,21.59599945444,0h238.26539398091c11.89089969961.0147,21.57909945487,9.7026,21.59379945449,21.596v171.5504c-.01469999963,11.8914-9.7023997549,21.5796-21.59599945444,21.5932h.00269999993H21.59329945451ZM21.59329945451,5.0633c-9.11449976975,0-16.52989958242,7.4152-16.52989958242,16.53v171.5531c0,9.115,7.41539981267,16.5302,16.52989958242,16.5302h238.26809398084c9.11449976975,0,16.52959958243-7.4152,16.52959958243-16.5302l.00061858442-171.5531c0-9.1148-7.41521839711-16.53-16.52971816686-16.53H21.59329945451Z"/>
  <path class="cls-1" d="M31.1236116022,119.4321c-6.65111222042,0-12.06241208372-5.411-12.06241208372-12.0621,0-6.6512,5.4112998633-12.0624,12.06241208372-12.0624,6.65108744353,0,12.06238730683,5.4112,12.06238730683,12.0624,0,6.6511-5.4112998633,12.0621-12.06238730683,12.0621ZM31.1236116022,100.3709c-3.85921229095,0-6.99881221164,3.1399-6.99881221164,6.9991,0,3.8594,3.13959992069,6.999,6.99881221164,6.999,1.86948756433,0,3.62708751993-.728,4.94938748652-2.05,1.3221999666-1.3219,2.04989994822-3.0796,2.04969994822-4.9496,0-3.8586-3.13989992068-6.9985-6.99908743474-6.9985Z"/>
  <path class="cls-1" d="M250.33079367611,119.4321c-6.65109983198,0-12.06209969529-5.411-12.06209969529-12.0621,0-6.6512,5.41099986331-12.0624,12.06209969529-12.0624s12.06259969527,5.4112,12.06259969527,12.0624c0,6.6511-5.41149986329,12.0621-12.06259969527,12.0621ZM250.33079367611,100.3709c-3.85889990252,0-6.9984998232,3.1399-6.9984998232,6.9991,0,3.8594,3.13959992069,6.999,6.9984998232,6.999,3.8593999025,0,6.99899982319-3.1396,6.99899982319-6.999,0-3.8592-3.13959992069-6.9991-6.99899982319-6.9991Z"/>
  <path class="cls-1" d="M116.90079704684,181.3826c-4.02359989836,0-7.29709981566-3.2738-7.29709981566-7.2974v-14.2959c0-1.2336-1.00008562898-2.2338-2.23369994357-2.2338h-42.88849891655c-4.02359989836,0-7.29709981566-3.2737-7.29709981566-7.2973V40.6553c0-4.0239,3.2734999173-7.2974,7.29709981566-7.2974h152.49169614773c4.02359989836,0,7.29679981567,3.2735,7.29729981565,7.2971v109.6032c0,4.0236-3.27319991731,7.2973-7.29679981567,7.2973h-42.88819891655c-1.23359996884,0-2.23379994357,1.0002-2.23379994357,2.2338v14.2959c0,4.0236-3.2736999173,7.2974-7.29729981565,7.2974h-47.65359879617ZM64.48149837106,38.4209c-1.23359996884,0-2.23379994357,1.0002-2.23379994357,2.2338v85.7764c0,1.2336,1.00019997473,2.2338,2.23379994357,2.2338h28.5922992777c4.02359989836,0,7.29709981566,3.2738,7.29709981566,7.2974v14.2959c0,1.2336,1.00019997473,2.2337,2.23379994357,2.2337h4.76529987962c4.02361431459,0,7.29709981566,3.2738,7.29709981566,7.2974v14.2959c0,1.2336,1.00019997473,2.2338,2.23369994357,2.2338h47.65359879617c1.23349996884,0,2.23369994357-1.0002,2.23369994357-2.2338v-14.2959c0-4.0236,3.2737999173-7.2974,7.29739981565-7.2974h4.76469987963c1.23359996884,0,2.23379994357-1.0001,2.23379994357-2.2337v-14.2959c0-4.0236,3.2737999173-7.2974,7.29739981565-7.2974h28.5922992777c1.23359996884,0,2.23379994357-1.0002,2.23379994357-2.2338V40.6547c0-1.2336-1.00019997473-2.2338-2.23379994357-2.2338H64.48149837106ZM188.3807952411,133.7285c-1.23359996884,0-2.23369994357,1.0002-2.23369994357,2.2338v14.2959c0,1.2336,1.00009997474,2.2337,2.23369994357,2.2337h28.5923992777c1.23349996884,0,2.23369994357-1.0001,2.23369994357-2.2337v-14.2959c0-1.2336-1.00019997473-2.2338-2.23369994357-2.2338h-28.5923992777ZM64.48149837106,133.7285c-1.23359996884,0-2.23379994357,1.0002-2.23379994357,2.2338v14.2959c0,1.2336,1.00019997473,2.2337,2.23379994357,2.2337h28.5922992777c1.23359996884,0,2.23381395344-1.0001,2.23381395344-2.2337v-14.2959c0-1.2336-1.0002139846-2.2338-2.23381395344-2.2338h-28.5922992777Z"/>
  <path class="cls-1" d="M140.72729644493,67.013c-1.39579996474,0-2.53149993605-1.1354-2.53149993605-2.5313v-14.2961c0-1.3959,1.13569997131-2.5316,2.53149993605-2.5316,1.39609996473,0,2.53159993605,1.1357,2.53159993605,2.5316v14.2961c0,1.3959-1.13549997131,2.5313-2.53159993605,2.5313Z"/>
  <path class="cls-1" d="M155.02319608378,67.013c-1.39549996475,0-2.53099993606-1.1354-2.53099993606-2.5313v-14.2961c0-1.3959,1.13549997131-2.5316,2.53099993606-2.5316,1.39609996473,0,2.53149993605,1.1357,2.53149993605,2.5316v14.2961c0,1.3959-1.13539997132,2.5313-2.53149993605,2.5313Z"/>
  <path class="cls-1" d="M169.31969572262,67.013c-1.39619996473,0-2.53159993605-1.1354-2.53159993605-2.5313v-14.2961c0-1.3959,1.13539997132-2.5316,2.53159993605-2.5316,1.39609996473,0,2.53149993605,1.1357,2.53149993605,2.5316v14.2961c0,1.3959-1.13539997132,2.5313-2.53149993605,2.5313Z"/>
  <path class="cls-1" d="M183.61549536148,67.013c-1.39609996473,0-2.53149993605-1.1354-2.53149993605-2.5313v-14.2961c0-1.3959,1.13539997132-2.5316,2.53149993605-2.5316,1.39611624071,0,2.53159993605,1.1357,2.53159993605,2.5316v14.2961c0,1.3959-1.13548369533,2.5313-2.53159993605,2.5313Z"/>
  <path class="cls-1" d="M197.91199500032,67.013c-1.39609996473,0-2.53159993605-1.1354-2.53159993605-2.5313v-14.2961c0-1.3959,1.13549997131-2.5316,2.53159993605-2.5316,1.39549996475,0,2.53099993606,1.1357,2.53099993606,2.5316v14.2961c0,1.3959-1.13549997131,2.5313-2.53099993606,2.5313Z"/>
  <path class="cls-1" d="M126.43119680608,67.013c-1.39589996474,0-2.53129993605-1.1354-2.53129993605-2.5313v-14.2961c0-1.3959,1.13539997132-2.5316,2.53129993605-2.5316,1.39579996474,0,2.53149993605,1.1357,2.53149993605,2.5316v14.2961c0,1.3959-1.13569997131,2.5313-2.53149993605,2.5313Z"/>
  <path class="cls-1" d="M112.13499716723,67.013c-1.39579996474,0-2.53129993605-1.1354-2.53129993605-2.5313v-14.2961c0-1.3959,1.13549997131-2.5316,2.53129993605-2.5316s2.53149993605,1.1357,2.53149993605,2.5316v14.2961c0,1.3959-1.13569997131,2.5313-2.53149993605,2.5313Z"/>
  <path class="cls-1" d="M97.83909752838,67.013c-1.39579996474,0-2.53148592618-1.1354-2.53148592618-2.5313v-14.2961c0-1.3959,1.13568596144-2.5316,2.53148592618-2.5316s2.53129993605,1.1357,2.53129993605,2.5316v14.2961c0,1.3959-1.13549997131,2.5313-2.53129993605,2.5313Z"/>
  <path class="cls-1" d="M83.54299788953,67.013c-1.39589996474,0-2.53159993605-1.1354-2.53159993605-2.5313v-14.2961c0-1.3959,1.13569997131-2.5316,2.53159993605-2.5316,1.39579996474,0,2.53119993606,1.1357,2.53119993606,2.5316v14.2961c0,1.3959-1.13539997132,2.5313-2.53119993606,2.5313Z"/>
</svg>