<?xml version="1.0" encoding="UTF-8"?>
<svg id="Layer_1" data-name="Layer 1" xmlns="http://www.w3.org/2000/svg" version="1.1" viewBox="0 0 281.5 214.7">
  <defs>
    <style>
      .cls-1 {
        fill: #010101;
        stroke-width: 0px;
      }
    </style>
  </defs>
  <path class="cls-1" d="M30.7,206.7c-10.9,0-19.7-8.9-19.7-19.7V30.1c0-10.9,8.9-19.7,19.7-19.7h217.8c10.9,0,19.7,8.9,19.7,19.7v156.8c0,10.9-8.9,19.7-19.7,19.7h0H30.7ZM30.7,15c-8.3,0-15.1,6.8-15.1,15.1v156.8c0,8.3,6.8,15.1,15.1,15.1h217.8c8.3,0,15.1-6.8,15.1-15.1V30.1c0-8.3-6.8-15.1-15.1-15.1,0,0-217.8,0-217.8,0Z"/>
  <path class="cls-1" d="M39.5,119.6c-6.1,0-11-4.9-11-11s4.9-11,11-11,11,4.9,11,11-4.9,11-11,11ZM39.5,102.2c-3.5,0-6.4,2.9-6.4,6.4s2.9,6.4,6.4,6.4,3.3-.7,4.5-1.9c1.2-1.2,1.9-2.8,1.9-4.5,0-3.5-2.9-6.4-6.4-6.4Z"/>
  <path class="cls-1" d="M239.9,119.6c-6.1,0-11-4.9-11-11s4.9-11,11-11,11,4.9,11,11-4.9,11-11,11ZM239.9,102.2c-3.5,0-6.4,2.9-6.4,6.4s2.9,6.4,6.4,6.4,6.4-2.9,6.4-6.4-2.9-6.4-6.4-6.4h0Z"/>
  <path class="cls-1" d="M117.9,176.2c-3.7,0-6.7-3-6.7-6.7v-13.1c0-1.1-.9-2-2-2h-39.2c-3.7,0-6.7-3-6.7-6.7V47.6c0-3.7,3-6.7,6.7-6.7h139.4c3.7,0,6.7,3,6.7,6.7v100.2c0,3.7-3,6.7-6.7,6.7h-39.2c-1.1,0-2,.9-2,2v13.1c0,3.7-3,6.7-6.7,6.7h-43.6ZM70,45.5c-1.1,0-2,.9-2,2v78.4c0,1.1.9,2,2,2h26.1c3.7,0,6.7,3,6.7,6.7v13.1c0,1.1.9,2,2,2h4.4c3.7,0,6.7,3,6.7,6.7v13.1c0,1.1.9,2,2,2h43.6c1.1,0,2-.9,2-2v-13.1c0-3.7,3-6.7,6.7-6.7h4.4c1.1,0,2-.9,2-2v-13.1c0-3.7,3-6.7,6.7-6.7h26.1c1.1,0,2-.9,2-2V47.6c0-1.1-.9-2-2-2,0,0-139.4,0-139.4,0ZM183.2,132.7c-1.1,0-2,.9-2,2v13.1c0,1.1.9,2,2,2h26.1c1.1,0,2-.9,2-2v-13.1c0-1.1-.9-2-2-2h-26.1ZM70,132.7c-1.1,0-2,.9-2,2v13.1c0,1.1.9,2,2,2h26.1c1.1,0,2-.9,2-2v-13.1c0-1.1-.9-2-2-2h-26.1Z"/>
  <path class="cls-1" d="M139.7,71.7c-1.3,0-2.3-1-2.3-2.3v-13.1c0-1.3,1-2.3,2.3-2.3s2.3,1,2.3,2.3v13.1c0,1.3-1,2.3-2.3,2.3Z"/>
  <path class="cls-1" d="M152.7,71.7c-1.3,0-2.3-1-2.3-2.3v-13.1c0-1.3,1-2.3,2.3-2.3s2.3,1,2.3,2.3v13.1c0,1.3-1,2.3-2.3,2.3Z"/>
  <path class="cls-1" d="M165.8,71.7c-1.3,0-2.3-1-2.3-2.3v-13.1c0-1.3,1-2.3,2.3-2.3s2.3,1,2.3,2.3v13.1c0,1.3-1,2.3-2.3,2.3Z"/>
  <path class="cls-1" d="M178.9,71.7c-1.3,0-2.3-1-2.3-2.3v-13.1c0-1.3,1-2.3,2.3-2.3s2.3,1,2.3,2.3v13.1c0,1.3-1,2.3-2.3,2.3Z"/>
  <path class="cls-1" d="M191.9,71.7c-1.3,0-2.3-1-2.3-2.3v-13.1c0-1.3,1-2.3,2.3-2.3s2.3,1,2.3,2.3v13.1c0,1.3-1,2.3-2.3,2.3Z"/>
  <path class="cls-1" d="M126.6,71.7c-1.3,0-2.3-1-2.3-2.3v-13.1c0-1.3,1-2.3,2.3-2.3s2.3,1,2.3,2.3v13.1c0,1.3-1,2.3-2.3,2.3Z"/>
  <path class="cls-1" d="M113.5,71.7c-1.3,0-2.3-1-2.3-2.3v-13.1c0-1.3,1-2.3,2.3-2.3s2.3,1,2.3,2.3v13.1c0,1.3-1,2.3-2.3,2.3Z"/>
  <path class="cls-1" d="M100.5,71.7c-1.3,0-2.3-1-2.3-2.3v-13.1c0-1.3,1-2.3,2.3-2.3s2.3,1,2.3,2.3v13.1c0,1.3-1,2.3-2.3,2.3Z"/>
  <path class="cls-1" d="M87.4,71.7c-1.3,0-2.3-1-2.3-2.3v-13.1c0-1.3,1-2.3,2.3-2.3s2.3,1,2.3,2.3v13.1c0,1.3-1,2.3-2.3,2.3Z"/>
</svg>