<?xml version="1.0" encoding="UTF-8"?>
<svg id="Layer_1" data-name="Layer 1" xmlns="http://www.w3.org/2000/svg" viewBox="0 0 157.25639602737 250.60179461456">
  <defs>
    <style>
      .cls-1 {
        fill: #010101;
        stroke-width: 0px;
      }
    </style>
  </defs>
  <path class="cls-1" d="M53.17016140264,250.60179461456c-3.58253642093,0-6.49719816015-2.91483988902-6.49719816015-6.49746543855v-16.9716390044c0-1.09837385439-.89055893434-1.98893281123-1.98893276098-1.98893281123H10.73986294933c-5.92201212577,0-10.73986294933-4.81785094527-10.73986294933-10.73986322064v-93.34592884309c0-5.92201227537,4.81785082356-10.73986322064,10.73986294933-10.73986322064,1.09837382664,0,1.98893276098-.89055895684,1.98893276098-1.98893281122V10.74013033491C12.72879571031,4.81811805953,17.54691364812,0,23.4689257739,0h110.31738698446c5.92201816737,0,10.74030813976,4.81811805953,10.7412875587,10.74039744917v97.58877181562c0,1.09837385438.89055893434,1.98893281122,1.98893276098,1.98893281122,5.92201212577,0,10.73986294933,4.81785094527,10.73986294933,10.73986322064v93.34592884309c0,5.92201227537-4.81785082356,10.73986322064-10.73986294933,10.73986322064h-33.94443464644c-1.09837382664,0-1.98893276098.89055895684-1.98893276098,1.98893281123v16.9716390044c0,3.58262554952-2.91439462496,6.49746543855-6.49693104589,6.49746543855h-50.91607322209ZM53.16962717412,225.14375736039c-1.09837382664,0-1.98884372289.89055895684-1.98884372289,1.98893281123v16.9716390044c0,1.09837385439.89046989626,1.98893281123,1.98884372289,1.98893281123h50.91616226018c1.09837382664,0,1.98884372289-.89055895684,1.98884372289-1.98893281123v-16.9716390044c0-1.09837385439-.89046989626-1.98893281123-1.98884372289-1.98893281123h-50.91616226018ZM10.73986294933,114.82636758908c-3.43615780785,0-6.23159755016,2.79543981293-6.23159755016,6.23159770758v93.34592884309c0,3.43633597083,2.79543974231,6.23177578376,6.23159755016,6.23177578376h135.7761359002c3.43642492211,0,6.23186466442-2.79543981293,6.23186466442-6.23177578376v-93.34592884309c0-1.6645670564-.64828630283-3.22950049225-1.82528075925-4.40676209266-1.17698816126-1.17681640997-2.74157170039-1.82483561492-4.40560448622-1.82483561492H10.73986294933ZM23.46839154538,4.50826551306c-3.43615478953,0-6.23159755016,2.79570692719-6.23159755016,6.23186482185v97.58957315842c0,1.09837385439.89055893434,1.98884377314,1.98893276098,1.98884377314h55.1585599351c1.09837382664,0,1.98893276098-.89046991875,1.98893276098-1.98884377314v-8.48639824977c0-3.58253651143,2.91483981539-6.49719832428,6.49746527441-6.49719832428h4.24284757829c1.0983691137,0,1.98892804804-.89055895684,1.98892804804-1.98884377314v-21.21519428164c0-1.09837385439-.89055893434-1.98884377314-1.98892804804-1.98884377314h-4.24284757829c-3.58262545902,0-6.49746527441-2.91466181285-6.49746527441-6.49719832428v-8.48515171654c0-1.09837385438-.89055893434-1.98893281122-1.98893276098-1.98893281122h-4.24266478918c-3.58253222724,0-6.49719816015-2.91466181285-6.49719816015-6.49719832428v-21.21510524355c0-3.5828036257,2.91466593291-6.49746543855,6.49719816015-6.49746543855h4.24266478918c1.09837382664,0,1.98893276098-.89046991875,1.98893276098-1.98884377314V6.49719832428c0-1.09837385438-.89055893434-1.98893281122-1.98893276098-1.98893281122H23.46839154538ZM82.87068472669,97.85392724188c-1.09837382664,0-1.98892820547.89055895684-1.98892820547,1.98893281122v8.48630921168c0,1.09837385438.89055437883,1.98893281122,1.98892820547,1.98893281122h55.15847089701c1.09837382664,0,1.98893276098-.89055895684,1.98893276098-1.98893281122V10.74013033491c0-3.43615789465-2.79543974231-6.23186482185-6.23177562633-6.23186482185h-50.91562803166c-1.09837382664,0-1.98892820547.89055895684-1.98892820547,1.98893281122v8.48559690698c0,3.5828036257-2.91466629473,6.49746543855-6.49746982992,6.49746543855h-4.24266478918c-1.09836957019,0-1.98893276098.89055895684-1.98893276098,1.98893281122v21.21412582458c0,1.09837385438.89056319079,1.98893281122,1.98893276098,1.98893281122h4.24266478918c3.58280353519,0,6.49746982992,2.91457277476,6.49746982992,6.49719832428v8.48604209742c0,1.09837385439.89055437883,1.98893281122,1.98892820547,1.98893281122h4.24284757829c3.58262074608,0,6.49701537104,2.91466181285,6.49701537104,6.49719832428v21.21510524355c0,3.58253651143-2.91439462496,6.49719832428-6.49701537104,6.49719832428h-4.24284757829Z"/>
  <path class="cls-1" d="M31.95496765694,76.63882199834c-1.24279360183,0-2.2537320282-1.0109384519-2.2537320282-2.25382112322v-29.70123637906c0-1.24279363323,1.01093842637-2.2539991994,2.2537320282-2.2539991994h16.971994728c1.24279360183,0,2.25382106629,1.01147268043,2.25382106629,2.25453342793v29.70070215053c0,1.24288267132-1.01102746445,2.25382112322-2.25382106629,2.25382112322h-16.971994728ZM36.19745436995,46.93803080972c-1.09837382664,0-1.98893276098.89055895684-1.98893276098,1.98893281122v21.21510524355c0,1.09837385438.89055893434,1.98893281122,1.98893276098,1.98893281122h8.48613092113c1.09837382664,0,1.98884741421-.89055895684,1.98884741421-1.98893281122v-21.21510524355c0-1.09837385439-.89047358757-1.98893281122-1.98884741421-1.98893281122h-8.48613092113Z"/>
  <path class="cls-1" d="M108.32916652817,76.63882199834c-1.24306071609,0-2.25399914246-1.0109384519-2.25399914246-2.25382112322v-29.70123637906c0-1.24279363323,1.01093842637-2.2539991994,2.25399914246-2.2539991994h16.97172761375c1.24306071609,0,2.25399914246,1.01147268043,2.25399914246,2.25453342793v29.70070215053c0,1.24288267132-1.01093842637,2.25382112322-2.25399914246,2.25382112322h-16.97172761375ZM112.57111901266,46.93803080972c-1.09837382664,0-1.98884372289.89055895684-1.98884372289,1.98893281122v21.21510524355c0,1.09837385438.89046989625,1.98893281122,1.98884372289,1.98893281122h8.48640360583c1.0983682562,0,1.98883815245-.89055895684,1.98883815245-1.98893281122v-21.21510524355c0-1.09837385439-.89046989626-1.98893281122-1.98883815245-1.98893281122h-8.48640360583Z"/>
  <path class="cls-1" d="M53.16962717412,131.7978285173c-1.24279360183,0-2.2537320282-1.0109384519-2.2537320282-2.2539991994s1.01093842637-2.2539991994,2.2537320282-2.2539991994h50.91616226018c1.24306071609,0,2.25399914246,1.0109384519,2.25399914246,2.2539991994s-1.01093842637,2.2539991994-2.25399914246,2.2539991994h-50.91616226018Z"/>
  <path class="cls-1" d="M65.89868999869,148.76955655979c-1.24279360183,0-2.25381694621-1.0109384519-2.25381694621-2.2539991994s1.01102334438-2.2539991994,2.25381694621-2.2539991994h25.45776949679c1.24306071609,0,2.25408818054,1.01093845191,2.25408818054,2.2539991994s-1.01102746445,2.2539991994-2.25408818054,2.2539991994h-25.45776949679Z"/>
</svg>