<?xml version="1.0" encoding="UTF-8"?>
<svg id="Layer_1" data-name="Layer 1" xmlns="http://www.w3.org/2000/svg" version="1.1" viewBox="0 0 285.1 369">
  <defs>
    <style>
      .cls-1 {
        fill: none;
        stroke: #000;
        stroke-linecap: round;
        stroke-linejoin: round;
        stroke-width: 15px;
      }
    </style>
  </defs>
  <line class="cls-1" x1="12.9" y1="107.2" x2="91.5" y2="107.2"/>
  <line class="cls-1" x1="91.5" y1="107.2" x2="91.5" y2="11"/>
  <line class="cls-1" x1="91.5" y1="11" x2="195.1" y2="11"/>
  <line class="cls-1" x1="195.1" y1="107.2" x2="195.1" y2="11"/>
  <line class="cls-1" x1="196.8" y1="107.2" x2="268.4" y2="107.2"/>
  <line class="cls-1" x1="195" y1="152.4" x2="273.6" y2="152.4"/>
  <line class="cls-1" x1="196.8" y1="213.3" x2="274.1" y2="213.3"/>
  <line class="cls-1" x1="195.5" y1="259.8" x2="274.1" y2="259.8"/>
  <line class="cls-1" x1="11" y1="152.4" x2="89.8" y2="152.4"/>
  <line class="cls-1" x1="12.9" y1="213.3" x2="89.8" y2="213.3"/>
  <line class="cls-1" x1="11.7" y1="259.8" x2="90.4" y2="259.8"/>
  <line class="cls-1" x1="91.5" y1="358" x2="91.5" y2="261.8"/>
  <line class="cls-1" x1="91.7" y1="358" x2="195.3" y2="358"/>
  <line class="cls-1" x1="195.1" y1="356.1" x2="195.1" y2="260"/>
  <line class="cls-1" x1="11" y1="107.2" x2="11" y2="152.4"/>
  <line class="cls-1" x1="273.6" y1="107.2" x2="273.6" y2="152.4"/>
  <line class="cls-1" x1="89.8" y1="152.4" x2="89.8" y2="213.3"/>
  <line class="cls-1" x1="195" y1="152.4" x2="195" y2="213.3"/>
  <line class="cls-1" x1="274.1" y1="213.3" x2="274.1" y2="259.8"/>
  <line class="cls-1" x1="11.7" y1="213.3" x2="11.7" y2="259.8"/>
</svg>