<?xml version="1.0" encoding="UTF-8"?>
<svg id="Layer_1" data-name="Layer 1" xmlns="http://www.w3.org/2000/svg" xmlns:xlink="http://www.w3.org/1999/xlink" viewBox="0 0 354.71698113208 259.63820268431">
  <defs>
    <style>
      .cls-1 {
        fill: none;
        stroke-width: 0px;
      }

      .cls-2 {
        fill: #010101;
        stroke: #000;
        stroke-miterlimit: 10;
        stroke-width: 3px;
      }

      .cls-3 {
        clip-path: url(#clippath);
      }
    </style>
    <clipPath id="clippath">
      <rect class="cls-1" width="354.71698113208" height="259.63820268431"/>
    </clipPath>
  </defs>
  <g class="cls-3">
    <path class="cls-2" d="M34.27903524488,231.03202522856c-14.05876781948-.01424536082-25.51261072502-9.40281030928-25.52939914864-20.92808247423V62.33061285742c.01678842363-11.52333402062,11.47039487249-20.91170515464,25.5325913137-20.92536907216h281.69721626202c14.05841313447.01366391752,25.51261072501,9.40203505155,25.52999029032,20.92808247422v147.7732329897c-.0173795653,11.52314020619-11.47157715585,20.91170515464-25.53259131369,20.92546597938h.00319216505H34.27903524488ZM34.27903524488,46.31223759969c-10.77592163033,0-19.54302561383,7.18576701031-19.54302561383,16.01837525773v147.77546185568c0,8.83260824742,8.7671039835,16.01837525773,19.54302561383,16.01837525773h281.70040842707c10.77592163033,0,19.54267092882-7.18576701031,19.54267092882-16.01837525773l.00070937002-147.77546185568c0-8.83260824742-8.76686752683-16.01837525773-19.54278915717-16.01837525773H34.27903524488Z"/>
    <path class="cls-2" d="M31.82772584531,145.16516815795c-6.44539587629,0-11.68933608248-5.24364948454-11.68933608248-11.68904536082s5.24394020619-11.68933608247,11.68933608248-11.68933608247c6.44549278351,0,11.68904536083,5.24394020618,11.68904536083,11.68933608247s-5.24355257732,11.68904536082-11.68904536083,11.68904536082ZM31.82772584531,126.69358671465c-3.73984329897,0-6.78253608247,3.04269278351-6.78253608247,6.78253608247s3.0426927835,6.78234226804,6.78253608247,6.78234226804c3.74013402062,0,6.78263298969-3.04249896907,6.78263298969-6.78234226804s-3.04249896907-6.78253608247-6.78263298969-6.78253608247Z"/>
    <path class="cls-2" d="M317.11843066276,145.16531351878c-6.44539587629,0-11.68933608248-5.24423092783-11.68933608248-11.68962680412s5.24394020619-11.68904536082,11.68933608248-11.68904536082c6.44549278351,0,11.68904536082,5.24364948454,11.68904536082,11.68904536082s-5.24355257732,11.68962680412-11.68904536082,11.68962680412ZM317.11843066276,126.69305372496c-3.73984329897,0-6.78253608248,3.04249896907-6.78253608248,6.78263298969s3.04269278351,6.78263298969,6.78253608248,6.78263298969c3.74013402062,0,6.78263298969-3.04249896907,6.78263298969-6.78263298969s-3.04249896907-6.78263298969-6.78263298969-6.78263298969Z"/>
    <path class="cls-2" d="M69.01219325682,170.99703553784c-3.5467072165-.00106597938-6.85918969072-1.58288247423-9.08786185567-4.3404742268-2.22993195876-2.7571072165-3.0826185567-6.32755670103-2.34011546392-9.79605979381l9.90042886598-46.178614433c1.18168659794-5.41536907216,5.88546597938-9.21946185567,11.43689278351-9.24301030927h192.61646597938c5.54173608248.02325773196,10.24580618557,3.82735051546,11.42962474227,9.25095670103l9.90382061856,46.17173402063c.74250309278,3.46792164948-.11047422681,7.03895257732-2.3411814433,9.7965443299-2.22915670103,2.75768865979-5.54222061856,4.33892371134-9.08941237113,4.33892371134H69.01219325682ZM78.91174995786,106.34567677494c-3.22235876289.01211340206-5.94777731959,2.21403917526-6.63533402062,5.35460824742l-9.90285154639,46.18869278352c-.4306556701,2.01460412371.06560618557,4.0872556701,1.36115876289,5.6875814433,1.2942927835,1.59809690722,3.21528453608,2.51454845361,5.2710742268,2.51454845361h212.4329257732c2.07003505155,0,3.98957319588-.92168453608,5.27747010309-2.52830927835,1.29216082474-1.58598350515,1.78997319588-3.66028247423,1.35447216495-5.6770185567l-9.90013814433-46.1762886598c-.68862268041-3.14657731959-3.41132783505-5.34850309278-6.62351134021-5.36381443299H78.91174995786Z"/>
    <path class="cls-2" d="M175.2250221228,147.9074375997c-1.35263092784,0-2.45320618557-1.10028453608-2.45320618557-2.45272164948,0-1.35292164949,1.10057525773-2.45320618557,2.45320618557-2.45320618557,1.35292164948,0,2.45330309278,1.10028453608,2.45330309278,2.45320618557,0,1.3524371134-1.1003814433,2.45272164948-2.45330309278,2.45272164948Z"/>
    <path class="cls-2" d="M193.69670047332,147.9074375997c-1.35292164949,0-2.45320618557-1.10028453608-2.45320618557-2.45272164948,0-1.35292164949,1.10028453608-2.45320618557,2.45320618557-2.45320618557s2.45320618556,1.10028453608,2.45320618556,2.45320618557c0,1.3524371134-1.10028453608,2.45272164948-2.45320618556,2.45272164948Z"/>
    <path class="cls-2" d="M212.16886335992,147.9074375997c-1.35234020618,0-2.45262474227-1.10028453608-2.45262474227-2.45272164948,0-1.35292164949,1.10028453608-2.45320618557,2.45262474227-2.45320618557,1.35292164949,0,2.45330309279,1.10028453608,2.45330309279,2.45320618557,0,1.3524371134-1.1003814433,2.45272164948-2.45330309279,2.45272164948Z"/>
    <path class="cls-2" d="M230.64112315373,147.9074375997c-1.35292164948,0-2.45330309278-1.10028453608-2.45330309278-2.45272164948,0-1.35292164949,1.1003814433-2.45320618557,2.45330309278-2.45320618557,1.35234020619,0,2.45272164949,1.10028453608,2.45272164949,2.45320618557,0,1.3524371134-1.1003814433,2.45272164948-2.45272164949,2.45272164948Z"/>
    <path class="cls-2" d="M249.11280150425,147.9074375997c-1.35292164948,0-2.45330309278-1.10028453608-2.45330309278-2.45272164948,0-1.35292164949,1.1003814433-2.45320618557,2.45330309278-2.45320618557s2.45320618557,1.10028453608,2.45320618557,2.45320618557c0,1.3524371134-1.10028453608,2.45272164948-2.45320618557,2.45272164948Z"/>
    <path class="cls-2" d="M267.58496439085,147.9074375997c-1.35292164949,0-2.45320618557-1.10028453608-2.45320618557-2.45272164948,0-1.35292164949,1.10028453608-2.45320618557,2.45320618557-2.45320618557s2.45320618556,1.10028453608,2.45320618556,2.45320618557c0,1.3524371134-1.10028453608,2.45272164948-2.45320618556,2.45272164948Z"/>
    <path class="cls-2" d="M82.86517676198,147.9074375997c-1.35272783505,0-2.45330309278-1.10028453608-2.45330309278-2.45272164948,0-1.35292164949,1.10057525773-2.45320618557,2.45330309278-2.45320618557,1.35263092783,0,2.45320618557,1.10028453608,2.45320618557,2.45320618557,0,1.3524371134-1.10057525773,2.45272164948-2.45320618557,2.45272164948Z"/>
    <path class="cls-2" d="M101.33733964858,147.9074375997c-1.35263092783,0-2.45301237113-1.10028453608-2.45301237113-2.45272164948,0-1.35292164949,1.1003814433-2.45320618557,2.45301237113-2.45320618557s2.45320618557,1.10028453608,2.45320618557,2.45320618557c0,1.3524371134-1.10057525773,2.45272164948-2.45320618557,2.45272164948Z"/>
    <path class="cls-2" d="M119.80930872074,147.9074375997c-1.35272783505,0-2.45330309278-1.10028453608-2.45330309278-2.45272164948,0-1.35292164949,1.10057525773-2.45320618557,2.45330309278-2.45320618557,1.35263092783,0,2.45291546392,1.10028453608,2.45291546392,2.45320618557,0,1.3524371134-1.10028453608,2.45272164948-2.45291546392,2.45272164948Z"/>
    <path class="cls-2" d="M138.28089016404,147.9074375997c-1.35263092783,0-2.45291546392-1.10028453608-2.45291546392-2.45272164948,0-1.35292164949,1.10028453608-2.45320618557,2.45291546392-2.45320618557,1.35272783505,0,2.45330309278,1.10028453608,2.45330309278,2.45320618557,0,1.3524371134-1.10057525773,2.45272164948-2.45330309278,2.45272164948Z"/>
    <path class="cls-2" d="M156.75334377229,147.9074375997c-1.35263092784,0-2.45320618557-1.10028453608-2.45320618557-2.45272164948,0-1.35292164949,1.10057525773-2.45320618557,2.45320618557-2.45320618557,1.35272783505,0,2.45301237113,1.10028453608,2.45301237113,2.45320618557,0,1.3524371134-1.10028453608,2.45272164948-2.45301237113,2.45272164948Z"/>
    <path class="cls-2" d="M184.46144274136,129.43527471309c-1.35292164948,0-2.45330309278-1.1003814433-2.45330309278-2.45301237114s1.1003814433-2.45320618557,2.45330309278-2.45320618557c1.35234020619,0,2.45262474227,1.10057525773,2.45262474227,2.45320618557s-1.10028453608,2.45301237114-2.45262474227,2.45301237114Z"/>
    <path class="cls-2" d="M202.93312109187,129.43527471309c-1.3530185567,0-2.45330309278-1.1003814433-2.45330309278-2.45301237114s1.10028453608-2.45320618557,2.45330309278-2.45320618557c1.35292164949,0,2.45320618557,1.10057525773,2.45320618557,2.45320618557s-1.10028453608,2.45301237114-2.45320618557,2.45301237114Z"/>
    <path class="cls-2" d="M221.40470253518,129.43527471309c-1.35292164949,0-2.45320618557-1.1003814433-2.45320618557-2.45301237114s1.10028453608-2.45320618557,2.45320618557-2.45320618557,2.45330309278,1.10057525773,2.45330309278,2.45320618557-1.1003814433,2.45301237114-2.45330309278,2.45301237114Z"/>
    <path class="cls-2" d="M239.87696232899,129.43527471309c-1.35292164949,0-2.45330309279-1.1003814433-2.45330309279-2.45301237114s1.1003814433-2.45320618557,2.45330309279-2.45320618557,2.45320618557,1.10057525773,2.45320618557,2.45320618557-1.10028453609,2.45301237114-2.45320618557,2.45301237114Z"/>
    <path class="cls-2" d="M258.3486406795,129.43527471309c-1.3524371134,0-2.45272164948-1.1003814433-2.45272164948-2.45301237114s1.10028453608-2.45320618557,2.45272164948-2.45320618557c1.35292164948,0,2.45320618557,1.10057525773,2.45320618557,2.45320618557s-1.10028453609,2.45301237114-2.45320618557,2.45301237114Z"/>
    <path class="cls-2" d="M92.10120975167,129.43527471309c-1.35263092783,0-2.45291546392-1.1003814433-2.45291546392-2.45301237114s1.10028453608-2.45320618557,2.45291546392-2.45320618557c1.35272783505,0,2.45330309278,1.10057525773,2.45330309278,2.45320618557s-1.10057525773,2.45301237114-2.45330309278,2.45301237114Z"/>
    <path class="cls-2" d="M110.57317882383,129.43527471309c-1.35263092784,0-2.45320618557-1.1003814433-2.45320618557-2.45301237114s1.10057525773-2.45320618557,2.45320618557-2.45320618557,2.45291546392,1.10057525773,2.45291546392,2.45320618557-1.10028453608,2.45301237114-2.45291546392,2.45301237114Z"/>
    <path class="cls-2" d="M129.04534171043,129.43527471309c-1.35263092784,0-2.45320618557-1.1003814433-2.45320618557-2.45301237114s1.10057525773-2.45320618557,2.45320618557-2.45320618557c1.35272783505,0,2.45320618557,1.10057525773,2.45320618557,2.45320618557s-1.10047835052,2.45301237114-2.45320618557,2.45301237114Z"/>
    <path class="cls-2" d="M147.51702006095,129.43527471309c-1.35263092784,0-2.45301237113-1.1003814433-2.45301237113-2.45301237114s1.1003814433-2.45320618557,2.45301237113-2.45320618557,2.45320618557,1.10057525773,2.45320618557,2.45320618557-1.10057525773,2.45301237114-2.45320618557,2.45301237114Z"/>
    <path class="cls-2" d="M165.98898913311,129.43527471309c-1.35272783505,0-2.45330309278-1.1003814433-2.45330309278-2.45301237114s1.10057525773-2.45320618557,2.45330309278-2.45320618557c1.35263092784,0,2.45291546392,1.10057525773,2.45291546392,2.45320618557s-1.10028453608,2.45301237114-2.45291546392,2.45301237114Z"/>
  </g>
</svg>