<?xml version="1.0" encoding="UTF-8"?>
<svg id="Layer_1" data-name="Layer 1" xmlns="http://www.w3.org/2000/svg" viewBox="0 0 24 24">
  <defs>
    <style>
      .cls-1 {
        fill: none;
        stroke: #fff;
        stroke-linecap: round;
        stroke-linejoin: round;
        stroke-width: 2px;
      }
    </style>
  </defs>
  <circle class="cls-1" cx="12" cy="12" r="3"/>
  <path class="cls-1" d="M19.39999961853,15c-.27234649658.61709022522-.14166641235,1.33781242371.32999992371,1.81999969482l.05999946594.05999946594c.78148269653.78061485291.78218650818,2.04694366455.00157356262,2.82842636108l-.00157356262.00157356262c-.78061485291.78148269653-2.04694366455.78218650818-2.82842636108.00157356262l-.00157356262-.00157356262-.05999946594-.05999946594c-.48218727112-.47166633606-1.2029094696-.60234642029-1.81999969482-.32999992371-.60447025299.2590675354-.99737739563.85235786438-1,1.51000022888v.17000007629c0,1.10457038879-.89543056488,2-2,2s-2-.89542961121-2-2v-.09000015259c-.01584339142-.67733001709-.4441280365-1.27613449097-1.07999992371-1.51000022888-.61709022522-.27234649658-1.33781337738-.14166641235-1.82000017166.32999992371l-.05999994278.05999946594c-.78061389923.78148269653-2.04694366455.78218650818-2.82842683792.00157356262-.00052452087-.00052452087-.00104904175-.00104904175-.00157308578-.00157356262-.78148293495-.78061485291-.78218722343-2.04694366455-.00157308578-2.82842636108.00052404404-.00052452087.00104856491-.00104904175.00157308578-.00157356262l.05999994278-.05999946594c.47166585922-.48218727112.60234642029-1.2029094696.32999992371-1.81999969482-.25906848907-.60447025299-.85235714912-.99737739563-1.50999999046-1h-.16999983788c-1.10456955433,0-2-.89543056488-2-2s.89543044567-2,2-2h.08999991417c.67732906342-.01584339142,1.27613472939-.4441280365,1.50999999046-1.07999992371.27234649658-.61709022522.14166593552-1.33781337738-.32999992371-1.82000017166l-.05999994278-.05999994278c-.78148293495-.78061389923-.78218722343-2.04694366455-.00157308578-2.82842683792.00052404404-.00052452087.00104856491-.00104904175.00157308578-.00157308578.78061389923-.78148293495,2.04694366455-.78218722343,2.82842683792-.00157308578.00052452087.00052404404.00104904175.00104856491.00157308578.00157308578l.05999994278.05999994278c.48218679428.47166585922,1.20290994644.60234642029,1.82000017166.32999992371h.07999992371c.60447025299-.25906848907.99737739563-.85235714912,1-1.50999999046v-.16999983788c0-1.10456955433.89543056488-2,2-2s2,.89543044567,2,2v.08999991417c.00262260437.65764284134.39552974701,1.25093150139,1,1.50999999046.61709022522.27234649658,1.33781242371.14166593552,1.81999969482-.32999992371l.05999946594-.05999994278c.78061485291-.78148293495,2.04694366455-.78218722343,2.82842636108-.00157308578.00052452087.00052404404.00104904175.00104856491.00157356262.00157308578.78148269653.78061389923.78218650818,2.04694366455.00157356262,2.82842683792-.00052452087.00052452087-.00104904175.00104904175-.00157356262.00157308578l-.05999946594.05999994278c-.47166633606.48218679428-.60234642029,1.20290994644-.32999992371,1.82000017166v.07999992371c.2590675354.60447025299.85235786438.99737739563,1.51000022888,1h.17000007629c1.10457038879,0,2,.89543056488,2,2s-.89542961121,2-2,2h-.09000015259c-.6576423645.00262260437-1.25093269348.39552974701-1.51000022888,1Z"/>
</svg>